<?xml version="1.0" encoding="UTF-8"?> <svg xmlns="http://www.w3.org/2000/svg" width="267" height="124" viewBox="0 0 267 124" fill="none"><path d="M47 2L265 100H47.0002L47 2Z" fill="#FF4081" stroke="black" stroke-width="3" stroke-linejoin="round"></path><path d="M138.332 18.7914L138.068 18.8931C137.878 18.9609 137.607 19.0287 137.254 19.0965C136.902 19.1644 136.508 19.2118 136.075 19.239H135.688V18.3031H136.075C136.712 18.276 137.302 18.1742 137.844 17.9979C138.386 17.8216 138.766 17.6588 138.983 17.5096C139.2 17.3604 139.39 17.2112 139.552 17.062C139.579 17.0213 139.661 17.001 139.796 17.001C139.918 17.001 140.034 17.0417 140.142 17.1231V23.2062L140.162 29.3097C140.257 29.4047 140.339 29.4657 140.406 29.4928C140.474 29.52 140.637 29.5471 140.895 29.5742C141.152 29.6013 141.572 29.6149 142.155 29.6149H142.684V30.5508H142.461C142.176 30.5101 141.098 30.4897 139.227 30.4897C137.383 30.4897 136.319 30.5101 136.034 30.5508H135.79V29.6149H136.319C136.617 29.6149 136.874 29.6149 137.091 29.6149C137.308 29.6149 137.478 29.6081 137.6 29.5946C137.722 29.581 137.83 29.5607 137.925 29.5335C138.02 29.5064 138.074 29.4928 138.088 29.4928C138.101 29.4928 138.142 29.4589 138.21 29.3911C138.278 29.3233 138.318 29.2962 138.332 29.3097V18.7914Z" fill="black"></path><path d="M146.752 21.1327C146.386 21.1327 146.101 21.0174 145.898 20.7868C145.694 20.5562 145.586 20.2578 145.572 19.8916C145.572 19.1456 145.898 18.481 146.549 17.8978C147.199 17.3146 147.986 17.023 148.908 17.023C149.382 17.023 149.68 17.0298 149.803 17.0433C150.806 17.2061 151.572 17.5655 152.101 18.1216C152.629 18.6777 152.901 19.2813 152.914 19.9323C152.914 20.6376 152.684 21.3226 152.223 21.9872C151.762 22.6518 151.124 23.1333 150.311 23.4317L150.25 23.4723C150.25 23.4859 150.311 23.5063 150.433 23.5334C150.555 23.5605 150.752 23.6215 151.023 23.7165C151.294 23.8114 151.552 23.9538 151.796 24.1437C152.907 24.8626 153.463 25.812 153.463 26.992C153.463 28.0635 153.043 28.9994 152.202 29.7996C151.362 30.5999 150.297 31 149.009 31C147.925 31 146.989 30.7084 146.203 30.1252C145.416 29.5419 145.023 28.8027 145.023 27.9076C145.023 27.5278 145.145 27.2226 145.389 26.992C145.633 26.7615 145.938 26.6394 146.304 26.6258C146.684 26.6258 146.996 26.7479 147.24 26.992C147.484 27.2362 147.606 27.5413 147.606 27.9076C147.606 28.0568 147.586 28.1924 147.545 28.3145C147.504 28.4365 147.457 28.545 147.403 28.64C147.348 28.7349 147.274 28.8163 147.179 28.8841C147.084 28.9519 147.003 29.0062 146.935 29.0469C146.867 29.0876 146.799 29.1147 146.732 29.1283C146.664 29.1418 146.61 29.1622 146.569 29.1893L146.487 29.2096C147.179 29.82 148.02 30.1252 149.009 30.1252C149.755 30.1252 150.318 29.7657 150.697 29.0469C150.928 28.5993 151.043 27.9143 151.043 26.992V26.5851C151.043 25.2966 150.609 24.4353 149.741 24.0013C149.538 23.9199 149.125 23.8725 148.501 23.8589L147.647 23.8386L147.586 23.7979C147.559 23.7572 147.545 23.6487 147.545 23.4723C147.545 23.2282 147.599 23.1061 147.708 23.1061C148.087 23.1061 148.481 23.0722 148.887 23.0044C149.348 22.9366 149.769 22.6518 150.148 22.1499C150.528 21.6481 150.718 20.8885 150.718 19.8713V19.7085C150.718 18.9354 150.48 18.3997 150.006 18.1013C149.708 17.9114 149.389 17.8164 149.05 17.8164C148.616 17.8164 148.216 17.891 147.85 18.0402C147.484 18.1894 147.226 18.3454 147.077 18.5082C146.928 18.6709 146.854 18.7523 146.854 18.7523H146.915C146.955 18.7659 147.009 18.7794 147.077 18.793C147.145 18.8066 147.213 18.8405 147.281 18.8947C147.348 18.949 147.43 18.9964 147.525 19.0371C147.62 19.0778 147.687 19.1524 147.728 19.2609C147.769 19.3694 147.823 19.4712 147.891 19.5661C147.959 19.661 147.979 19.7967 147.952 19.973C147.952 20.2714 147.857 20.5359 147.667 20.7665C147.477 20.997 147.172 21.1191 146.752 21.1327Z" fill="black"></path><path d="M155.029 27.3172C155.029 25.8388 155.612 24.5096 156.778 23.3295C157.944 22.1495 159.205 21.5595 160.561 21.5595C161.32 21.5595 161.917 21.7223 162.351 22.0478C162.785 22.3733 163.008 22.8006 163.022 23.3295C163.022 23.7229 162.893 24.0552 162.635 24.3265C162.378 24.5977 162.052 24.7401 161.659 24.7537C161.402 24.7537 161.198 24.6859 161.049 24.5502C160.9 24.4146 160.825 24.2112 160.825 23.9399C160.825 23.6686 160.9 23.4381 161.049 23.2482C161.198 23.0583 161.347 22.9159 161.497 22.8209C161.646 22.726 161.741 22.6853 161.781 22.6989H161.802C161.802 22.6717 161.761 22.631 161.68 22.5768C161.598 22.5225 161.456 22.4683 161.252 22.414C161.049 22.3598 160.819 22.3326 160.561 22.3326C160.154 22.3326 159.768 22.4276 159.402 22.6175C159.117 22.7395 158.826 22.9498 158.527 23.2482C157.931 23.845 157.497 24.6859 157.226 25.7709C156.954 26.856 156.812 27.6427 156.799 28.131C156.799 28.7549 156.975 29.2228 157.327 29.5348C157.626 29.8603 158.019 30.0231 158.507 30.0231H158.588C160.107 30.0231 161.361 29.4466 162.351 28.2937C162.473 28.1581 162.554 28.0903 162.595 28.0903C162.649 28.0903 162.737 28.1513 162.859 28.2734C162.981 28.3955 163.049 28.4904 163.062 28.5582C163.076 28.626 163.015 28.7278 162.879 28.8634C162.744 28.999 162.547 29.1889 162.29 29.4331C162.032 29.6772 161.727 29.8806 161.374 30.0434C161.022 30.2062 160.588 30.3757 160.073 30.552C159.558 30.7284 159.015 30.803 158.446 30.7758C157.429 30.7758 156.609 30.4503 155.985 29.7993C155.361 29.1482 155.043 28.3209 155.029 27.3172Z" fill="black"></path><path d="M163.571 24.7145C163.584 24.6331 163.605 24.5246 163.632 24.389C163.659 24.2534 163.74 23.9957 163.876 23.6159C164.012 23.2361 164.147 22.9174 164.283 22.6597C164.418 22.402 164.635 22.1511 164.934 21.9069C165.232 21.6628 165.53 21.5475 165.828 21.5611C166.127 21.5746 166.418 21.6221 166.703 21.7035C166.988 21.7848 167.191 21.9069 167.313 22.0697C167.435 22.2324 167.544 22.3816 167.638 22.5173C167.733 22.6529 167.788 22.7818 167.801 22.9038L167.842 23.0462C167.842 23.0734 167.849 23.0869 167.862 23.0869L168.086 22.8631C168.899 21.9951 169.855 21.5611 170.953 21.5611C171.184 21.5611 171.394 21.5746 171.584 21.6017C171.774 21.6289 171.95 21.6763 172.113 21.7442C172.275 21.812 172.404 21.8798 172.499 21.9476C172.594 22.0154 172.696 22.0968 172.804 22.1917C172.913 22.2867 172.98 22.3749 173.008 22.4562C173.035 22.5376 173.089 22.6258 173.17 22.7207C173.252 22.8157 173.279 22.897 173.252 22.9649C173.224 23.0327 173.245 23.0937 173.313 23.148C173.38 23.2022 173.394 23.2497 173.353 23.2904L173.516 23.0869C174.37 22.0697 175.38 21.5611 176.546 21.5611C177.278 21.5611 177.868 21.7442 178.316 22.1104C178.763 22.4766 178.994 23.0123 179.007 23.7176C179.007 24.4094 178.749 25.4809 178.234 26.9321C177.719 28.3834 177.461 29.2515 177.461 29.5363C177.475 29.7262 177.509 29.855 177.563 29.9229C177.617 29.9907 177.719 30.0246 177.868 30.0246C178.248 30.0246 178.6 29.8211 178.926 29.4142C179.251 29.0073 179.516 28.4512 179.719 27.7459C179.76 27.5967 179.8 27.5086 179.841 27.4815C179.882 27.4543 179.99 27.4408 180.166 27.4408C180.438 27.4408 180.573 27.495 180.573 27.6035C180.573 27.6171 180.546 27.7188 180.492 27.9087C180.383 28.302 180.234 28.6886 180.044 29.0684C179.854 29.4481 179.543 29.8279 179.109 30.2077C178.675 30.5875 178.207 30.7706 177.705 30.757C177.068 30.757 176.607 30.5739 176.323 30.2077C176.038 29.8415 175.895 29.4617 175.895 29.0684C175.895 28.8107 176.14 27.9969 176.628 26.627C177.116 25.2571 177.367 24.2262 177.38 23.5345C177.38 22.7343 177.082 22.3342 176.485 22.3342H176.384C175.218 22.3342 174.235 23.0191 173.435 24.389L173.292 24.6331L172.621 27.3594C172.174 29.1362 171.916 30.0924 171.848 30.228C171.672 30.5942 171.381 30.7773 170.974 30.7773C170.798 30.7773 170.655 30.7299 170.547 30.6349C170.438 30.54 170.364 30.4586 170.323 30.3908C170.282 30.323 170.262 30.2552 170.262 30.1873C170.262 30.0381 170.492 29.0684 170.953 27.278L171.686 24.3076C171.726 24.1042 171.747 23.8465 171.747 23.5345C171.747 22.7343 171.448 22.3342 170.852 22.3342H170.75C169.584 22.3342 168.601 23.0191 167.801 24.389L167.659 24.6331L166.988 27.3594C166.54 29.1362 166.283 30.0924 166.215 30.228C166.039 30.5942 165.747 30.7773 165.34 30.7773C165.164 30.7773 165.022 30.7367 164.913 30.6553C164.805 30.5739 164.73 30.4925 164.689 30.4111C164.649 30.3298 164.635 30.2619 164.649 30.2077C164.649 30.0314 164.906 28.9192 165.422 26.8711C165.95 24.7823 166.215 23.6905 166.215 23.5956C166.255 23.3921 166.276 23.209 166.276 23.0462C166.276 22.558 166.106 22.3138 165.767 22.3138C165.469 22.3138 165.218 22.5037 165.015 22.8835C164.812 23.2633 164.656 23.6769 164.547 24.1245C164.439 24.5721 164.357 24.8163 164.303 24.8569C164.276 24.8841 164.167 24.8976 163.978 24.8976H163.693C163.612 24.8163 163.571 24.7552 163.571 24.7145Z" fill="black"></path><g clip-path="url(#clip0_2023:61349)"><path d="M136.516 111.818L136.241 111.922C136.043 111.991 135.76 112.059 135.393 112.128C135.025 112.197 134.615 112.246 134.163 112.273H133.76V111.322H134.163C134.827 111.294 135.442 111.191 136.007 111.012C136.573 110.833 136.969 110.667 137.195 110.516C137.421 110.364 137.619 110.212 137.788 110.061C137.817 110.019 137.902 109.999 138.043 109.999C138.17 109.999 138.29 110.04 138.403 110.123V116.305L138.425 122.508C138.523 122.605 138.608 122.667 138.679 122.694C138.75 122.722 138.919 122.749 139.188 122.777C139.456 122.805 139.895 122.818 140.502 122.818H141.054V123.77H140.82C140.524 123.728 139.4 123.708 137.449 123.708C135.527 123.708 134.417 123.728 134.12 123.77H133.866V122.818H134.417C134.728 122.818 134.997 122.818 135.223 122.818C135.449 122.818 135.626 122.811 135.753 122.798C135.88 122.784 135.993 122.763 136.092 122.736C136.191 122.708 136.248 122.694 136.262 122.694C136.276 122.694 136.318 122.66 136.389 122.591C136.46 122.522 136.502 122.494 136.516 122.508V111.818Z" fill="black"></path><path d="M144.913 114.899C144.531 114.899 144.227 114.775 144.001 114.527C143.775 114.279 143.662 113.976 143.662 113.617C143.662 112.638 144.036 111.791 144.785 111.074C145.535 110.357 146.467 109.999 147.584 109.999C148.87 109.999 149.945 110.385 150.807 111.157C151.669 111.928 152.107 112.928 152.122 114.155C152.122 114.747 151.98 115.313 151.698 115.85C151.415 116.388 151.076 116.857 150.68 117.256C150.284 117.656 149.719 118.166 148.984 118.786C148.475 119.214 147.768 119.848 146.863 120.689L145.612 121.847L147.224 121.867C149.443 121.867 150.623 121.833 150.765 121.764C150.864 121.736 151.033 121.123 151.273 119.924V119.862H152.122V119.924C152.107 119.965 152.016 120.592 151.846 121.805C151.676 123.018 151.57 123.652 151.528 123.708V123.77H143.662V123.377V123.129C143.662 123.032 143.704 122.929 143.789 122.818C143.874 122.708 144.086 122.467 144.425 122.095C144.835 121.654 145.188 121.268 145.485 120.937C145.612 120.799 145.853 120.544 146.206 120.172C146.559 119.8 146.8 119.545 146.927 119.407C147.054 119.269 147.259 119.041 147.542 118.724C147.824 118.407 148.022 118.173 148.135 118.021C148.249 117.87 148.411 117.663 148.623 117.401C148.835 117.139 148.984 116.919 149.068 116.739C149.153 116.56 149.259 116.36 149.386 116.14C149.514 115.919 149.606 115.699 149.662 115.478C149.719 115.257 149.768 115.051 149.81 114.858C149.853 114.665 149.874 114.437 149.874 114.175C149.874 113.307 149.634 112.556 149.153 111.922C148.673 111.288 147.987 110.97 147.096 110.97C146.63 110.97 146.22 111.088 145.867 111.322C145.513 111.556 145.266 111.784 145.125 112.004C144.983 112.225 144.913 112.356 144.913 112.397C144.913 112.411 144.948 112.418 145.019 112.418C145.273 112.418 145.535 112.514 145.803 112.707C146.072 112.9 146.206 113.217 146.206 113.658C146.206 114.003 146.093 114.293 145.867 114.527C145.641 114.761 145.323 114.885 144.913 114.899Z" fill="black"></path><path d="M153.924 120.483C153.924 118.981 154.532 117.63 155.747 116.431C156.963 115.231 158.278 114.632 159.691 114.632C160.483 114.632 161.105 114.797 161.557 115.128C162.009 115.459 162.243 115.893 162.257 116.431C162.257 116.83 162.122 117.168 161.854 117.444C161.585 117.719 161.246 117.864 160.836 117.878C160.568 117.878 160.356 117.809 160.2 117.671C160.045 117.533 159.967 117.327 159.967 117.051C159.967 116.775 160.045 116.541 160.2 116.348C160.356 116.155 160.511 116.01 160.666 115.914C160.822 115.817 160.921 115.776 160.963 115.79H160.985C160.985 115.762 160.942 115.721 160.857 115.666C160.773 115.61 160.624 115.555 160.412 115.5C160.2 115.445 159.96 115.417 159.691 115.417C159.267 115.417 158.864 115.514 158.483 115.707C158.186 115.831 157.882 116.045 157.571 116.348C156.949 116.954 156.497 117.809 156.214 118.912C155.931 120.015 155.783 120.814 155.769 121.31C155.769 121.944 155.952 122.42 156.32 122.737C156.631 123.068 157.041 123.233 157.55 123.233H157.634C159.218 123.233 160.525 122.647 161.557 121.476C161.684 121.338 161.769 121.269 161.811 121.269C161.868 121.269 161.96 121.331 162.087 121.455C162.214 121.579 162.285 121.676 162.299 121.745C162.313 121.814 162.25 121.917 162.108 122.055C161.967 122.193 161.762 122.386 161.493 122.634C161.225 122.882 160.907 123.089 160.539 123.254C160.172 123.419 159.719 123.592 159.182 123.771C158.645 123.95 158.08 124.026 157.486 123.998C156.426 123.998 155.571 123.668 154.92 123.006C154.27 122.344 153.938 121.503 153.924 120.483Z" fill="black"></path><path d="M162.829 117.838C162.843 117.756 162.865 117.645 162.893 117.507C162.921 117.37 163.006 117.108 163.147 116.722C163.289 116.336 163.43 116.012 163.571 115.75C163.713 115.488 163.939 115.233 164.25 114.985C164.561 114.737 164.872 114.62 165.183 114.633C165.494 114.647 165.798 114.695 166.094 114.778C166.391 114.861 166.603 114.985 166.731 115.15C166.858 115.316 166.971 115.467 167.07 115.605C167.169 115.743 167.225 115.874 167.239 115.998L167.282 116.143C167.282 116.17 167.289 116.184 167.303 116.184L167.536 115.957C168.384 115.074 169.381 114.633 170.526 114.633C170.766 114.633 170.985 114.647 171.183 114.675C171.381 114.702 171.565 114.75 171.734 114.819C171.904 114.888 172.038 114.957 172.137 115.026C172.236 115.095 172.342 115.178 172.455 115.274C172.568 115.371 172.639 115.46 172.667 115.543C172.696 115.626 172.752 115.715 172.837 115.812C172.922 115.908 172.95 115.991 172.922 116.06C172.894 116.129 172.915 116.191 172.985 116.246C173.056 116.301 173.07 116.35 173.028 116.391L173.197 116.184C174.088 115.15 175.141 114.633 176.357 114.633C177.12 114.633 177.735 114.819 178.201 115.192C178.668 115.564 178.908 116.108 178.922 116.825C178.922 117.528 178.654 118.617 178.117 120.092C177.579 121.567 177.311 122.449 177.311 122.739C177.325 122.932 177.36 123.063 177.417 123.132C177.473 123.2 177.579 123.235 177.735 123.235C178.131 123.235 178.498 123.028 178.837 122.615C179.177 122.201 179.452 121.636 179.664 120.919C179.707 120.767 179.749 120.678 179.792 120.65C179.834 120.623 179.947 120.609 180.131 120.609C180.414 120.609 180.555 120.664 180.555 120.774C180.555 120.788 180.527 120.892 180.47 121.085C180.357 121.484 180.201 121.877 180.004 122.263C179.806 122.649 179.481 123.035 179.028 123.421C178.576 123.807 178.088 123.993 177.565 123.979C176.901 123.979 176.42 123.793 176.123 123.421C175.827 123.049 175.678 122.663 175.678 122.263C175.678 122.001 175.933 121.174 176.442 119.782C176.95 118.39 177.212 117.342 177.226 116.639C177.226 115.826 176.915 115.419 176.293 115.419H176.187C174.971 115.419 173.947 116.115 173.113 117.507L172.964 117.756L172.265 120.526C171.798 122.332 171.529 123.304 171.459 123.442C171.275 123.814 170.971 124 170.547 124C170.363 124 170.215 123.952 170.102 123.855C169.989 123.759 169.911 123.676 169.869 123.607C169.826 123.538 169.805 123.469 169.805 123.4C169.805 123.249 170.045 122.263 170.526 120.444L171.289 117.425C171.332 117.218 171.353 116.956 171.353 116.639C171.353 115.826 171.042 115.419 170.42 115.419H170.314C169.098 115.419 168.073 116.115 167.239 117.507L167.091 117.756L166.391 120.526C165.925 122.332 165.656 123.304 165.586 123.442C165.402 123.814 165.098 124 164.674 124C164.49 124 164.342 123.959 164.229 123.876C164.116 123.793 164.038 123.711 163.995 123.628C163.953 123.545 163.939 123.476 163.953 123.421C163.953 123.242 164.222 122.111 164.759 120.03C165.31 117.907 165.586 116.798 165.586 116.701C165.628 116.494 165.649 116.308 165.649 116.143C165.649 115.646 165.473 115.398 165.119 115.398C164.808 115.398 164.547 115.591 164.335 115.977C164.123 116.363 163.96 116.784 163.847 117.239C163.734 117.694 163.649 117.942 163.593 117.983C163.564 118.011 163.451 118.024 163.253 118.024H162.956C162.872 117.942 162.829 117.88 162.829 117.838Z" fill="black"></path></g><path d="M3.35071 54.3549C3.35071 54.6804 3.24174 54.9516 3.02382 55.1686C2.80589 55.3856 2.54029 55.4941 2.22702 55.4941H2.084C2.71054 56.5654 3.54139 57.1011 4.57655 57.1011C5.52998 57.1011 6.22463 56.6942 6.66048 55.8806C6.91927 55.433 7.04866 54.5651 7.04866 53.2768C7.04866 51.88 6.86479 50.9375 6.49703 50.4493C6.1429 50.0018 5.74791 49.7781 5.31205 49.7781H5.18947C4.12707 49.7781 3.32347 50.2391 2.77865 51.1613C2.72416 51.2562 2.67649 51.3105 2.63563 51.324C2.59477 51.3376 2.49262 51.3511 2.32917 51.3647C2.09762 51.3647 1.96823 51.324 1.94099 51.2427C1.91375 51.1884 1.90013 50.0018 1.90013 47.6829V45.0588C1.90013 44.3807 1.93418 44.0417 2.00228 44.0417C2.02952 44.0146 2.05676 44.001 2.084 44.001C2.09762 44.001 2.24064 44.0553 2.51305 44.1637C2.78546 44.2722 3.16002 44.3807 3.63674 44.4892C4.11345 44.5977 4.62422 44.6519 5.16904 44.6519C6.13609 44.6519 7.06228 44.4621 7.94761 44.0824C8.05658 44.0281 8.14511 44.001 8.21321 44.001C8.32218 44.001 8.37666 44.1231 8.37666 44.3672V44.6316C7.25978 45.947 5.86368 46.6047 4.18836 46.6047C3.76613 46.6047 3.38476 46.5641 3.04425 46.4827L2.83994 46.442V49.9408C3.09873 49.7509 3.30303 49.6018 3.45286 49.4933C3.60268 49.3848 3.84785 49.2763 4.18836 49.1678C4.52888 49.0593 4.8762 49.0051 5.23033 49.0051C6.33359 49.0051 7.26659 49.4458 8.02934 50.3273C8.79208 51.2088 9.17346 52.253 9.17346 53.4599C9.17346 54.7075 8.7376 55.7721 7.86589 56.6535C6.99418 57.535 5.93178 57.9825 4.6787 57.9961C3.57544 57.9961 2.69011 57.6299 2.02271 56.8976C1.35531 56.1653 1.02161 55.3381 1.02161 54.416C1.02161 54.0905 1.09652 53.8328 1.24634 53.643C1.39617 53.4531 1.5528 53.3311 1.71625 53.2768C1.8797 53.2226 2.03633 53.1955 2.18616 53.1955C2.52667 53.1955 2.80589 53.3107 3.02382 53.5413C3.24174 53.7718 3.35071 54.043 3.35071 54.3549Z" fill="black"></path><path d="M10.91 54.3138C10.91 52.8357 11.4957 51.5067 12.6671 50.3269C13.8384 49.147 15.1051 48.5571 16.4672 48.5571C17.2299 48.5571 17.8292 48.7199 18.2651 49.0453C18.7009 49.3708 18.9257 49.798 18.9393 50.3269C18.9393 50.7201 18.8099 51.0524 18.5511 51.3236C18.2923 51.5948 17.9654 51.7372 17.5704 51.7508C17.3117 51.7508 17.1073 51.683 16.9575 51.5474C16.8077 51.4118 16.7328 51.2083 16.7328 50.9371C16.7328 50.6659 16.8077 50.4354 16.9575 50.2455C17.1073 50.0556 17.2572 49.9132 17.407 49.8183C17.5568 49.7234 17.6522 49.6827 17.693 49.6963H17.7135C17.7135 49.6691 17.6726 49.6285 17.5909 49.5742C17.5092 49.52 17.3661 49.4657 17.1618 49.4115C16.9575 49.3572 16.726 49.3301 16.4672 49.3301C16.0586 49.3301 15.6704 49.425 15.3026 49.6149C15.0166 49.737 14.7238 49.9472 14.4241 50.2455C13.8248 50.8422 13.389 51.683 13.1166 52.7679C12.8441 53.8528 12.7011 54.6393 12.6875 55.1275C12.6875 55.7513 12.8646 56.2192 13.2187 56.5311C13.5184 56.8565 13.9133 57.0193 14.4037 57.0193H14.4854C16.0109 57.0193 17.2708 56.4429 18.2651 55.2902C18.3877 55.1546 18.4694 55.0868 18.5103 55.0868C18.5647 55.0868 18.6533 55.1478 18.7759 55.2699C18.8984 55.3919 18.9665 55.4869 18.9802 55.5547C18.9938 55.6225 18.9325 55.7242 18.7963 55.8598C18.6601 55.9954 18.4626 56.1853 18.2038 56.4294C17.945 56.6735 17.6385 56.8769 17.2844 57.0396C16.9303 57.2024 16.4944 57.3719 15.9769 57.5482C15.4593 57.7245 14.9145 57.799 14.3424 57.7719C13.3209 57.7719 12.4968 57.4465 11.8703 56.7955C11.2437 56.1446 10.9237 55.3174 10.91 54.3138Z" fill="black"></path><path d="M19.491 51.7116C19.5046 51.6302 19.525 51.5218 19.5523 51.3861C19.5795 51.2505 19.6612 50.9929 19.7974 50.6132C19.9336 50.2335 20.0698 49.9148 20.206 49.6571C20.3422 49.3994 20.5602 49.1486 20.8598 48.9045C21.1595 48.6604 21.4591 48.5451 21.7588 48.5587C22.0584 48.5722 22.3513 48.6197 22.6373 48.701C22.9233 48.7824 23.1276 48.9045 23.2502 49.0672C23.3728 49.2299 23.4818 49.3791 23.5771 49.5147C23.6725 49.6503 23.7269 49.7792 23.7406 49.9012L23.7814 50.0436C23.7814 50.0707 23.7882 50.0843 23.8018 50.0843L24.0266 49.8605C24.8438 48.9926 25.8041 48.5587 26.9073 48.5587C27.1389 48.5587 27.35 48.5722 27.5407 48.5993C27.7314 48.6265 27.9084 48.6739 28.0719 48.7417C28.2353 48.8095 28.3647 48.8773 28.46 48.9451C28.5554 49.013 28.6575 49.0943 28.7665 49.1892C28.8755 49.2842 28.9436 49.3723 28.9708 49.4537C28.9981 49.5351 29.0525 49.6232 29.1343 49.7181C29.216 49.8131 29.2432 49.8944 29.216 49.9622C29.1887 50.03 29.2092 50.0911 29.2773 50.1453C29.3454 50.1995 29.359 50.247 29.3181 50.2877L29.4816 50.0843C30.3397 49.0672 31.3544 48.5587 32.5258 48.5587C33.2613 48.5587 33.8538 48.7417 34.3032 49.1079C34.7527 49.474 34.9843 50.0097 34.9979 50.7149C34.9979 51.4065 34.7391 52.4778 34.2215 53.9289C33.7039 55.3799 33.4451 56.2478 33.4451 56.5326C33.4588 56.7225 33.4928 56.8513 33.5473 56.9191C33.6018 56.9869 33.7039 57.0208 33.8538 57.0208C34.2351 57.0208 34.5893 56.8174 34.9162 56.4105C35.243 56.0037 35.5086 55.4477 35.7129 54.7425C35.7538 54.5934 35.7947 54.5052 35.8355 54.4781C35.8764 54.451 35.9854 54.4374 36.1624 54.4374C36.4348 54.4374 36.571 54.4916 36.571 54.6001C36.571 54.6137 36.5438 54.7154 36.4893 54.9053C36.3804 55.2985 36.2305 55.685 36.0398 56.0647C35.8492 56.4444 35.5359 56.8242 35.1 57.2039C34.6642 57.5836 34.1943 57.7667 33.6903 57.7531C33.0501 57.7531 32.587 57.57 32.301 57.2039C32.015 56.8377 31.872 56.458 31.872 56.0647C31.872 55.8071 32.1171 54.9934 32.6075 53.6237C33.0978 52.2541 33.3498 51.2234 33.3634 50.5318C33.3634 49.7317 33.0638 49.3316 32.4645 49.3316H32.3623C31.191 49.3316 30.2035 50.0165 29.3999 51.3861L29.2568 51.6302L28.5826 54.356C28.1332 56.1325 27.8744 57.0886 27.8063 57.2242C27.6292 57.5904 27.3364 57.7734 26.9277 57.7734C26.7507 57.7734 26.6077 57.726 26.4987 57.631C26.3897 57.5361 26.3148 57.4548 26.274 57.3869C26.2331 57.3191 26.2127 57.2513 26.2127 57.1835C26.2127 57.0344 26.4442 56.0647 26.9073 54.2747L27.6428 51.3048C27.6837 51.1014 27.7041 50.8437 27.7041 50.5318C27.7041 49.7317 27.4045 49.3316 26.8052 49.3316H26.703C25.5316 49.3316 24.5442 50.0165 23.7406 51.3861L23.5975 51.6302L22.9233 54.356C22.4739 56.1325 22.2151 57.0886 22.147 57.2242C21.9699 57.5904 21.6771 57.7734 21.2684 57.7734C21.0914 57.7734 20.9484 57.7328 20.8394 57.6514C20.7304 57.57 20.6555 57.4887 20.6147 57.4073C20.5738 57.3259 20.5602 57.2581 20.5738 57.2039C20.5738 57.0276 20.8326 55.9156 21.3502 53.8678C21.8814 51.7794 22.147 50.6877 22.147 50.5928C22.1878 50.3894 22.2083 50.2063 22.2083 50.0436C22.2083 49.5554 22.038 49.3113 21.6975 49.3113C21.3978 49.3113 21.1459 49.5012 20.9415 49.8809C20.7372 50.2606 20.5806 50.6742 20.4716 51.1217C20.3627 51.5692 20.281 51.8133 20.2265 51.854C20.1992 51.8811 20.0903 51.8947 19.8996 51.8947H19.6136C19.5318 51.8133 19.491 51.7523 19.491 51.7116Z" fill="black"></path><defs><clipPath id="clip0_2023:61349"><rect width="49" height="14" fill="white" transform="translate(132 110)"></rect></clipPath></defs></svg> 